<svg width="32" height="44" viewBox="0 0 32 44" fill="none" xmlns="http://www.w3.org/2000/svg">
<path d="M15.7138 0C7.03515 0 0 7.0056 0 15.6479C0 24.2897 16.1925 44 16.1925 44C16.1925 44 31.4286 24.2899 31.4286 15.6479C31.4286 7.00595 24.3927 0 15.7138 0ZM15.7138 3.17629C19.0356 3.17629 22.2213 4.49027 24.5698 6.82934C26.9189 9.16806 28.2385 12.3403 28.2385 15.6477C28.2385 18.9551 26.9189 22.1275 24.5698 24.4669C22.2211 26.8056 19.0354 28.1196 15.7138 28.1196C12.3918 28.1196 9.20605 26.8056 6.857 24.4669C4.5083 22.1278 3.18871 18.9556 3.18871 15.6477C3.18871 12.3397 4.5083 9.16789 6.857 6.82934C9.2057 4.49027 12.3914 3.17629 15.7138 3.17629Z" fill="#065F46"/>
<path fill-rule="evenodd" clip-rule="evenodd" d="M7.85714 8.64286C7.85714 8.20892 8.20892 7.85714 8.64286 7.85714H10.2143C10.5888 7.85714 10.9113 8.1215 10.9847 8.48877L11.1727 9.42857H22.7857C23.058 9.42857 23.3109 9.56957 23.4541 9.80121C23.5972 10.0329 23.6103 10.3221 23.4885 10.5657L20.3456 16.8514C20.2125 17.1176 19.9405 17.2857 19.6429 17.2857H12.1112L10.5397 18.8571H19.6429C20.9447 18.8571 22 19.9125 22 21.2143C22 22.5161 20.9447 23.5714 19.6429 23.5714C18.341 23.5714 17.2857 22.5161 17.2857 21.2143C17.2857 20.9388 17.333 20.6743 17.4198 20.4286H14.0087C14.0956 20.6743 14.1429 20.9388 14.1429 21.2143C14.1429 22.5161 13.0875 23.5714 11.7857 23.5714C10.4839 23.5714 9.42857 22.5161 9.42857 21.2143C9.42857 20.8402 9.51572 20.4865 9.67082 20.1723C8.90151 19.6612 8.67471 18.4998 9.42857 17.746L10.9328 16.2418L9.57015 9.42857H8.64286C8.20892 9.42857 7.85714 9.07679 7.85714 8.64286ZM12.4298 15.7143H19.1573L21.5144 11H11.487L12.4298 15.7143ZM11.7857 20.4286C11.3518 20.4286 11 20.7803 11 21.2143C11 21.6482 11.3518 22 11.7857 22C12.2197 22 12.5714 21.6482 12.5714 21.2143C12.5714 20.7803 12.2197 20.4286 11.7857 20.4286ZM19.6429 20.4286C19.2089 20.4286 18.8571 20.7803 18.8571 21.2143C18.8571 21.6482 19.2089 22 19.6429 22C20.0768 22 20.4286 21.6482 20.4286 21.2143C20.4286 20.7803 20.0768 20.4286 19.6429 20.4286Z" fill="#065F46"/>
</svg>
