<svg xmlns="http://www.w3.org/2000/svg" width="72" height="84" viewBox="0 0 72 84" fill="none">
  <path fill-rule="evenodd" clip-rule="evenodd" d="M29.6321 59.5975V58.0495L29.6309 43.3147C30.3653 43.2223 31.1225 43.0219 31.9049 42.7099C36.1433 41.2939 39.3401 42.8215 41.7113 45.4603C41.7089 45.4555 41.7065 45.4507 41.7053 45.4447C41.7077 45.4459 41.7101 45.4495 41.7125 45.4507V50.0971H41.7053V65.6275H35.3501C30.6761 65.6647 29.5901 63.0475 29.6321 59.5975Z" fill="white"/>
  <path fill-rule="evenodd" clip-rule="evenodd" d="M41.7124 45.4809C38.5672 43.4901 35.5528 43.3185 32.4748 44.5869C31.4884 44.9805 30.5416 45.1965 29.6308 45.2409L29.6296 43.3137C30.364 43.2213 31.1224 43.0209 31.9048 42.7089C35.878 41.3817 38.9356 42.6417 41.566 45.3057C41.5564 45.2997 41.5708 45.3225 41.626 45.3693C41.4052 45.1281 41.5516 45.2829 41.6944 45.4413C41.7004 45.4533 41.7064 45.4653 41.7124 45.4809Z" fill="#333333"/>
  <path fill-rule="evenodd" clip-rule="evenodd" d="M41.7112 45.4591C39.3412 42.8203 36.1432 41.2927 31.9048 42.7087C26.8576 44.7211 22.8148 42.0907 19.5916 35.6959C22.7056 36.7615 25.84 36.9547 28.9996 35.9731C35.0788 33.7651 39.0616 37.2487 41.7112 45.4591Z" fill="white"/>
  <path fill-rule="evenodd" clip-rule="evenodd" d="M38.0055 34.4925C35.6103 32.5209 32.7711 31.8956 29.6535 32.6576L29.6331 32.6648V25.0916C29.5899 21.6416 30.6759 19.0233 35.3511 19.0605H41.7147V30.5264H41.7135V36.3212H41.7195V39.2936C40.6827 37.3304 39.4611 35.6912 38.0055 34.4925Z" fill="white"/>
  <path fill-rule="evenodd" clip-rule="evenodd" d="M43.9768 26.6012V26.5952H12.7204V21.8828C12.6844 18.416 15.2008 17.6096 18.52 17.6408H53.5359C56.854 17.6096 59.3704 18.4148 59.3344 21.8828V26.5952H45.5572V26.6012H45.1348V26.5952H44.4004V26.6012H43.9768Z" fill="white"/>
</svg>