<svg xmlns="http://www.w3.org/2000/svg" width="72" height="84" viewBox="0 0 72 84" fill="none">
  <path fill-rule="evenodd" clip-rule="evenodd" d="M29.3115 60.5817V58.9533L29.3103 43.4517C30.0831 43.3545 30.8799 43.1445 31.7031 42.8157C36.1623 41.3253 39.5259 42.9333 42.0195 45.7089C42.0171 45.7041 42.0147 45.6981 42.0135 45.6933C42.0159 45.6945 42.0183 45.6981 42.0207 45.6993V50.5881H42.0135V66.9273H35.3271C30.4095 66.9657 29.2671 64.2117 29.3115 60.5817Z" fill="#1F8541"/>
  <path fill-rule="evenodd" clip-rule="evenodd" d="M42.0209 45.7304C38.7113 43.6364 35.5397 43.4552 32.3033 44.7896C31.2653 45.2036 30.2693 45.4304 29.3117 45.4784L29.3105 43.4504C30.0833 43.3532 30.8813 43.1432 31.7045 42.8144C35.8841 41.4188 39.1013 42.7436 41.8685 45.5468C41.8577 45.5408 41.8733 45.5648 41.9309 45.614C41.6993 45.3596 41.8529 45.5228 42.0029 45.6896C42.0089 45.7016 42.0149 45.7148 42.0209 45.7304Z" fill="#333333"/>
  <path fill-rule="evenodd" clip-rule="evenodd" d="M42.0197 45.7088C39.5261 42.9332 36.1625 41.3252 31.7033 42.8156C26.3933 44.9324 22.1405 42.1664 18.7493 35.4368C22.0253 36.5576 25.3229 36.7604 28.6469 35.7284C35.0417 33.4052 39.2321 37.0712 42.0197 45.7088Z" fill="#77C043"/>
  <path fill-rule="evenodd" clip-rule="evenodd" d="M38.1207 34.1695C35.6019 32.0959 32.6139 31.4383 29.3331 32.2387L29.3115 32.2459V24.2779C29.2671 20.6479 30.4095 17.8939 35.3271 17.9335H42.0219V29.9959H42.0195V36.0931H42.0255V39.2203C40.9371 37.1563 39.6519 35.4307 38.1207 34.1695Z" fill="#77C043"/>
  <path fill-rule="evenodd" clip-rule="evenodd" d="M44.404 25.868V25.862H11.5204V20.9036C11.482 17.2556 14.1304 16.4084 17.6212 16.4408H54.46C57.9496 16.4084 60.598 17.2556 60.5608 20.9036V25.862H46.066V25.868H45.6208V25.862H44.848V25.868H44.404Z" fill="#77C043"/>
</svg>