<svg width="51" height="49" viewBox="0 0 51 49" fill="none" xmlns="http://www.w3.org/2000/svg">
<path d="M45.3333 5.99996H2.66667V0.666626H45.3333V5.99996ZM30.1333 22C28 24.56 26.6667 27.8133 26.6667 31.3333C26.6667 34.3733 27.8133 37.6266 29.3333 40.6666V43.3333H2.66667V27.3333H0V22L2.66667 8.66663H45.3333L47.2 18C45.44 17.1466 43.52 16.6666 41.4933 16.6666L40.96 14H7.04L5.44 22H30.1333ZM24 27.3333H8V38H24V27.3333ZM50.6667 31.3333C50.6667 38.2666 41.3333 48.6666 41.3333 48.6666C41.3333 48.6666 32 38.2666 32 31.3333C32 26.2666 36.2667 22 41.3333 22C46.4 22 50.6667 26.2666 50.6667 31.3333ZM44.5333 31.6C44.5333 30 42.9333 28.4 41.3333 28.4C39.7333 28.4 38.1333 29.7333 38.1333 31.6C38.1333 33.2 39.4667 34.8 41.3333 34.8C43.2 34.8 44.8 33.2 44.5333 31.6Z" fill="url(#paint0_linear_6839_34712)"/>
<defs>
<linearGradient id="paint0_linear_6839_34712" x1="0" y1="24.6666" x2="50.6667" y2="24.6666" gradientUnits="userSpaceOnUse">
<stop stop-color="#00CDAC"/>
<stop offset="1" stop-color="#8DDAD5"/>
</linearGradient>
</defs>
</svg>
